<svg width="16" height="16" viewBox="0 0 16 16" fill="none" xmlns="http://www.w3.org/2000/svg">
<path d="M7.99902 0C10.1711 3.13571e-06 10.443 0.00903448 11.2959 0.0478516C12.1474 0.0868481 12.7293 0.222119 13.2393 0.419922C13.7659 0.62409 14.2113 0.897769 14.6562 1.34277C15.1011 1.78736 15.3741 2.2337 15.5791 2.75977C15.7757 3.2684 15.9112 3.8496 15.9512 4.70117C15.9895 5.5545 15.999 5.82738 15.999 8C15.999 10.1725 15.9895 10.4447 15.9512 11.2979C15.9112 12.1492 15.7758 12.7314 15.5791 13.2402C15.3741 13.766 15.1011 14.2127 14.6562 14.6572C14.2119 15.1021 13.766 15.3758 13.2402 15.5801C12.7313 15.7779 12.1485 15.9131 11.2969 15.9521C10.4439 15.991 10.1714 16 7.99902 16C5.827 16 5.55441 15.991 4.70117 15.9521C3.84994 15.9132 3.26865 15.7778 2.75977 15.5801C2.23405 15.3758 1.78718 15.1021 1.34277 14.6572C0.897958 14.2126 0.624413 13.7654 0.419922 13.2393C0.222344 12.7307 0.0879834 12.1493 0.0488281 11.2979C0.0101658 10.4446 0 10.1726 0 8C2.4002e-07 5.82738 0.00968693 5.5545 0.0478516 4.70117C0.0861794 3.84996 0.221643 3.26855 0.419922 2.75977C0.624859 2.2339 0.898 1.78733 1.34277 1.34277C1.78742 0.897936 2.2346 0.624257 2.76074 0.419922C3.2693 0.222169 3.85073 0.086842 4.70215 0.0478516C5.55506 0.009036 5.82797 4.15087e-06 7.99902 0ZM7.27832 1.44141C5.78738 1.44307 5.50067 1.45299 4.7627 1.48633C3.98294 1.52218 3.55929 1.65271 3.27734 1.7627C2.90422 1.908 2.63732 2.08142 2.35742 2.36133C2.07762 2.64122 1.90373 2.90805 1.75879 3.28125C1.64932 3.56325 1.51905 3.98692 1.4834 4.7666C1.44508 5.60968 1.4375 5.86198 1.4375 7.99805C1.4375 10.1343 1.44507 10.3881 1.4834 11.2314C1.51892 12.011 1.64933 12.4342 1.75879 12.7158C1.90412 13.0893 2.07743 13.3557 2.35742 13.6357C2.63732 13.9156 2.90422 14.0884 3.27734 14.2334C3.55946 14.3429 3.98294 14.4737 4.7627 14.5098C5.60594 14.5481 5.85945 14.5566 7.99512 14.5566C10.131 14.5566 10.3852 14.5481 11.2285 14.5098C12.0077 14.4741 12.4313 14.3443 12.7129 14.2344C13.0864 14.0894 13.3528 13.9157 13.6328 13.6357C13.9128 13.3559 14.0865 13.0901 14.2314 12.7168C14.3409 12.4351 14.4712 12.0115 14.5068 11.2314C14.5452 10.3883 14.5537 10.1348 14.5537 8C14.5537 5.86522 14.5452 5.61167 14.5068 4.76855C14.4713 3.98855 14.3409 3.56487 14.2314 3.2832C14.0861 2.90991 13.9127 2.64325 13.6328 2.36328C13.353 2.08328 13.0862 1.90965 12.7129 1.76465C12.431 1.65521 12.0078 1.52493 11.2285 1.48926C10.385 1.45092 10.131 1.44336 7.99512 1.44336C7.72847 1.44336 7.49109 1.44303 7.27832 1.44336V1.44141ZM8.00195 3.89453C10.2706 3.89462 12.1094 5.73413 12.1094 8.00293C12.1094 10.2718 10.2707 12.1104 8.00195 12.1104C5.73323 12.1103 3.89357 10.2718 3.89355 8.00293C3.89355 5.80482 5.62028 4.00922 7.79102 3.89941L8.00195 3.89453ZM7.99805 5.33594C6.52527 5.33594 5.33105 6.53008 5.33105 8.00293C5.33122 9.47547 6.52537 10.6689 7.99805 10.6689C9.47047 10.6688 10.6639 9.47541 10.6641 8.00293C10.6641 6.53015 9.47057 5.33604 7.99805 5.33594ZM12.2725 2.76562C12.8024 2.76562 13.2324 3.1956 13.2324 3.72559C13.2324 4.25559 12.8024 4.68555 12.2725 4.68555C11.7425 4.68555 11.3125 4.25559 11.3125 3.72559C11.3125 3.19544 11.7425 2.76562 12.2725 2.76562Z" fill="#EAE4DD"/>
</svg>
