<svg width="126" height="42" viewBox="0 0 126 42" fill="none" xmlns="http://www.w3.org/2000/svg">
<path d="M31.5325 11.7089H20.6027C19.5986 11.7089 18.7878 12.5201 18.7878 13.5184C18.7878 14.5167 19.6015 15.328 20.6027 15.328H31.5325C37.3581 15.328 42.0844 20.0547 42.0844 25.8516C42.0844 31.6484 37.3581 36.3723 31.5325 36.3723C27.8046 36.3723 24.4027 34.9281 21.8694 32.569C20.695 31.4758 18.7878 32.2641 18.7878 33.8636C18.7878 34.347 18.9753 34.8216 19.3273 35.1525C21.7828 37.4655 24.8961 39.0909 28.3586 39.7123C37.0205 41.2716 45.3766 35.1611 45.7084 26.3924C46.0114 18.3487 39.5279 11.706 31.5325 11.706" fill="#EAE4DD"/>
<path d="M41.5592 3.62486H20.3661C19.362 3.62486 18.5483 2.81358 18.5483 1.81243C18.5483 0.811277 19.362 0 20.3632 0H41.5564C42.5605 0 43.3741 0.811277 43.3741 1.81243C43.3741 2.81358 42.5605 3.62486 41.5564 3.62486" fill="#EAE4DD"/>
<path d="M9.53724 39.3556C8.53313 39.3556 7.71945 38.5443 7.71945 37.5432V5.97238C7.71945 5.12371 6.68071 4.70656 6.09209 5.31933L3.15189 8.38032C2.24876 9.32106 0.676226 9.042 0.153971 7.8481C-0.143223 7.17491 -0.00183952 6.38665 0.505988 5.85443L5.05047 1.12486C5.74008 0.405639 6.69514 0 7.69348 0C9.71613 0 11.355 1.63406 11.355 3.65075V37.5432C11.355 38.5443 10.5414 39.3556 9.53724 39.3556Z" fill="#EAE4DD"/>
<path d="M111.83 11.7089C104.008 11.7089 97.6424 18.0552 97.6424 25.8544C97.6424 33.6536 104.008 40 111.83 40C119.652 40 126 33.6479 126 25.8544C126 18.061 119.646 11.7089 111.83 11.7089ZM111.83 36.3723C105.999 36.3723 101.275 31.6513 101.275 25.8516C101.275 20.0518 106.001 15.3423 111.83 15.3423C117.658 15.3423 122.37 20.0547 122.37 25.8516C122.37 31.6484 117.644 36.3723 111.83 36.3723Z" fill="#EAE4DD"/>
<path d="M89.9038 39.3556C88.8997 39.3556 88.0861 38.5443 88.0861 37.5432V5.97238C88.0861 5.12371 87.0473 4.70656 86.4587 5.31933L83.5185 8.38032C82.6154 9.32106 81.0428 9.042 80.5206 7.8481C80.2234 7.17204 80.3648 6.38665 80.8755 5.85443L85.42 1.12486C86.1096 0.405639 87.0646 0 88.063 0C90.0856 0 91.7245 1.63406 91.7245 3.65075V37.5432C91.7245 38.5443 90.9109 39.3556 89.9067 39.3556" fill="#EAE4DD"/>
<path d="M100.182 12.1749C101.067 12.1749 101.812 11.5362 101.968 10.6646C102.683 6.66571 106.186 3.63061 110.402 3.63061H121.842C122.846 3.63061 123.66 2.81933 123.66 1.82106C123.66 0.822785 122.849 0.0115075 121.845 0.0115075H110.393C104.383 0.0115075 99.391 4.34407 98.3782 10.046C98.182 11.1565 99.039 12.1749 100.17 12.1749H100.182Z" fill="#EAE4DD"/>
<path d="M76.5618 15.6329L54.3011 38.7946C53.9548 39.1542 53.4788 39.3585 52.9796 39.3585C51.3667 39.3585 50.5414 37.431 51.6581 36.2687L73.9159 13.1013C74.8219 12.1605 76.3945 12.4396 76.9167 13.6335C77.2139 14.3124 77.0725 15.1007 76.5618 15.63" fill="#EAE4DD"/>
</svg>
