<svg width="24" height="24" viewBox="0 0 24 24" fill="none" xmlns="http://www.w3.org/2000/svg">
<g clip-path="url(#clip0_902_180)">
<mask id="mask0_902_180" style="mask-type:luminance" maskUnits="userSpaceOnUse" x="3" y="5" width="19" height="14">
<path d="M22 5H3V19H22V5Z" fill="white"/>
</mask>
<g mask="url(#mask0_902_180)">
<path d="M19.727 10.9944C19.3773 7.64225 16.2689 5 12.5 5C8.73108 5 5.6227 7.64225 5.25358 10.9944H3V11.507C3 14.1296 5.03988 16.5155 8.22597 17.6789V19H16.7546V17.6789C19.9407 16.5155 21.9806 14.1296 21.9806 11.507V10.9944H19.727ZM12.5 6.00563C14.9284 6.00563 17.046 7.24789 18.0757 9.06197C16.7352 8.15493 14.7147 7.56338 12.5 7.56338C10.2853 7.56338 8.2454 8.17465 6.88548 9.10141C7.91513 7.26761 10.0522 5.98592 12.5 5.98592V6.00563ZM12.5 8.58873C15.5112 8.58873 17.9397 9.77183 18.6002 10.9944H6.3998C7.07975 9.79155 9.52761 8.58873 12.4806 8.58873H12.5ZM16.1135 16.831L15.7638 16.9493V17.9944H9.21677V16.9493L8.86708 16.831C6.12781 15.9239 4.28221 14.0704 4.01022 12.0197H20.9509C20.6984 14.0901 18.8333 15.9437 16.0941 16.831H16.1135Z" fill="#ED1C24"/>
</g>
</g>
<defs>
<clipPath id="clip0_902_180">
<rect width="19" height="14" fill="white" transform="translate(3 5)"/>
</clipPath>
</defs>
</svg>
