<svg width="24" height="24" viewBox="0 0 24 24" fill="none" xmlns="http://www.w3.org/2000/svg">
<path d="M18.4693 11.8107C18.0225 9.24035 15.2638 7.3076 12 7.3076C8.7362 7.3076 5.9775 9.24035 5.53067 11.8107H2.5V12.4085C2.5 15.0187 4.52045 17.4695 7.66769 18.6451V20H16.3129V18.6451C19.4601 17.4695 21.5 15.0187 21.5 12.4085V11.8107H18.4693ZM6.71575 11.8107C7.182 9.91781 9.41616 8.50311 11.9806 8.50311C14.545 8.50311 16.7986 9.91781 17.2454 11.8107H6.71575ZM15.1472 17.7883V18.8045H8.85276V17.7883L8.44479 17.6488C5.82209 16.7721 4.03476 15.0187 3.72393 13.0262H20.2761C19.9652 15.0187 18.1779 16.792 15.5552 17.6488L15.1472 17.7883Z" fill="#ED1C24"/>
<path d="M4.40389 10.3761L4.96728 9.4396L5.02556 9.33998L3.35481 8.30386L3.2771 8.26401L2.7137 9.2005L2.65542 9.2802L4.32618 10.3362L4.40389 10.3761Z" fill="#ED1C24"/>
<path d="M5.86187 5.6841L4.9361 6.44288L6.20957 8.07726L7.13534 7.31847L5.86187 5.6841Z" fill="#ED1C24"/>
<path d="M8.50307 6.66999L9.64928 6.37111L9.1636 4.43836L9.14417 4.33873L7.99795 4.63761L8.48364 6.57036L8.50307 6.66999Z" fill="#ED1C24"/>
<path d="M12.5828 4H11.3978V6.0523H12.5828V4Z" fill="#ED1C24"/>
<path d="M18.9744 9.33998L19.5378 10.2964L19.5767 10.3761L21.2474 9.33998L21.3252 9.2802L20.7618 8.34371L20.7229 8.26401L19.0521 9.30012L18.9744 9.33998Z" fill="#ED1C24"/>
<path d="M18.154 5.68591L16.8813 7.32097L17.8075 8.07926L19.0801 6.4442L18.154 5.68591Z" fill="#ED1C24"/>
<path d="M15.4775 6.66999L15.9632 4.73724L16.002 4.63761L14.953 4.35866L14.8558 4.33873L14.3701 6.27148L14.3507 6.37111L15.3998 6.63014L15.4775 6.66999Z" fill="#ED1C24"/>
</svg>
