<svg width="24" height="24" viewBox="0 0 24 24" fill="none" xmlns="http://www.w3.org/2000/svg">
<path d="M19.5782 7.82681L20.8295 4H17.5399L16.2482 7.37899L12.8375 9.02778V9.35347C12.7568 10.3305 12.4541 11.7554 11.4652 12.9971C9.81029 15.0733 6.74268 15.9283 3.67508 15.1751L2 14.768L3.08981 16.1115C4.03835 17.2717 5.14833 18.1877 6.41978 18.8391C7.87286 19.5719 9.64884 20.0197 11.4854 19.9993C14.1292 19.9993 16.9142 19.1037 19.0333 16.9664C21.3138 14.6662 21.8789 11.7554 22 10.2491V9.94377L19.558 7.82681H19.5782ZM17.1766 8.21356L18.3471 5.16026H19.2553L18.2462 8.21356L20.0424 9.76057C19.3966 10.0659 18.4279 10.3916 17.2573 10.2491C16.2482 10.127 15.441 9.71986 14.8961 9.33311L17.1564 8.23392L17.1766 8.21356ZM18.2462 16.1522C15.0575 19.3887 10.1534 19.4294 6.96468 17.801C6.31887 17.4753 5.71342 17.0682 5.16852 16.5796C8.05449 16.8035 10.779 15.7451 12.3935 13.7299C13.3824 12.4678 13.7861 11.0837 13.9273 10.0048C14.5933 10.5544 15.6831 11.2262 17.1564 11.389C17.3986 11.4094 17.6206 11.4297 17.8426 11.4297C19.1342 11.4297 20.1837 11.0023 20.8496 10.6562C20.6478 12.1014 20.0626 14.3405 18.2664 16.1725L18.2462 16.1522Z" fill="#ED1C24"/>
</svg>
